<svg width="26" height="26" viewBox="0 0 26 26" fill="none" xmlns="http://www.w3.org/2000/svg">
<circle cx="12.7298" cy="13.2508" r="12.2298" stroke="#FFFDFD" stroke-opacity="0.8"/>
<path d="M17.3831 8.92214L17.8787 8.85599L17.8467 8.61621C18.957 9.8414 19.6336 11.4671 19.6341 13.2509L17.3831 8.92214ZM17.3831 8.92214C17.8787 8.85599 17.8787 8.85603 17.8787 8.85609L17.8787 8.85631L17.8788 8.85713L17.8792 8.86018L17.8808 8.87194L17.8867 8.91719C17.8919 8.95673 17.8994 9.01458 17.9087 9.08831C17.9275 9.23575 17.9538 9.44676 17.984 9.70176C18.0445 10.2114 18.1211 10.8984 18.1851 11.6053C18.249 12.3102 18.3013 13.0439 18.3116 13.644C18.3168 13.9429 18.3118 14.2202 18.2904 14.4492C18.2796 14.5635 18.2639 14.6756 18.2401 14.7774C18.2182 14.8707 18.1808 14.995 18.1064 15.1063L18.1062 15.1065C17.792 15.5759 17.3235 15.9732 16.7623 16.1937L16.8958 18.7487M17.3831 8.92214L16.8958 18.7487M16.8958 18.7487C18.5594 17.4881 19.6341 15.4965 19.6341 13.2511L16.8958 18.7487ZM9.08431 19.1051C7.12783 17.8865 5.8252 15.7226 5.8252 13.2509C5.8252 9.4375 8.91602 6.34668 12.7293 6.34668C14.6627 6.34668 16.4105 7.14142 17.6639 8.42214H17.3831H17.0724H17.0294H16.5724H16.5294H16.0977H16.0532H15.5977H15.5532H15.1396V8.42159H14.6396H14.1788H13.7411L13.6832 8.85543L14.1788 8.92159C13.6832 8.85543 13.6832 8.85547 13.6831 8.85554L13.6831 8.85576L13.683 8.85657L13.6826 8.85963L13.681 8.87138L13.6751 8.91664C13.6699 8.95617 13.6625 9.01402 13.6531 9.08775C13.6344 9.23519 13.6081 9.44621 13.5778 9.7012C13.5173 10.2108 13.4407 10.8978 13.3766 11.6047C13.3612 11.7754 13.3464 11.9478 13.3327 12.1196C13.3327 12.1115 13.3327 12.1034 13.3327 12.0953C13.3327 11.1185 12.9553 10.216 12.3973 9.55409C11.8452 8.89912 11.0705 8.4299 10.2467 8.42212L10.2467 8.4221H10.2419H10.2419H10.2419H10.2419H10.2419H10.2419H10.2419H10.2419H10.2419H10.2419H10.2419H10.2419H10.2419H10.2419H10.2419H10.2418H10.2418H10.2418H10.2418H10.2418H10.2418H10.2418H10.2418H10.2418H10.2418H10.2418H10.2418H10.2418H10.2418H10.2418H10.2418H10.2417H10.2417H10.2417H10.2417H10.2417H10.2417H10.2417H10.2417H10.2417H10.2417H10.2417H10.2417H10.2417H10.2417H10.2417H10.2417H10.2417H10.2417H10.2417H10.2417H10.2417H10.2417H10.2417H10.2416H10.2416H10.2416H10.2416H10.2416H10.2416H10.2416H10.2416H10.2416H10.2416H10.2416H10.2416H10.2416H10.2416H10.2416H10.2416H10.2416H10.2416H10.2416H10.2416H10.2416H10.2416H10.2416H10.2416H10.2416H10.2415H10.2415H10.2415H10.2415H10.2415H10.2415H10.2415H10.2415H10.2415H10.2415H10.2415H10.2415H10.2415H10.2415H10.2415H10.2415H10.2415H10.2415H10.2415H10.2415H10.2415H10.2415H10.2415H10.2415H10.2414H10.2414H10.2414H10.2414H10.2414H10.2414H10.2414H10.2414H10.2414H10.2414H10.2414H10.2414H10.2414H10.2414H10.2414H10.2414H10.2414H10.2414H10.2414H10.2414H10.2414H10.2414H10.2414H10.2413H10.2413H10.2413H10.2413H10.2413H10.2413H10.2413H10.2413H10.2413H10.2413H10.2413H10.2413H10.2413H10.2413H10.2413H10.2413H10.2413H10.2413H10.2413H10.2413H10.2413H10.2413H10.2413H10.2412H10.2412H10.2412H10.2412H10.2412H10.2412H10.2412H10.2412H10.2412H10.2412H10.2412H10.2412H10.2412H10.2412H10.2412H10.2412H10.2412H10.2412H10.2412H10.2412H10.2412H10.2412H10.2411H10.2411H10.2411H10.2411H10.2411H10.2411H10.2411H10.2411H10.2411H10.2411H10.2411H10.2411H10.2411H10.2411H10.2411H10.2411H10.2411H10.2411H10.2411H10.2411H10.2411H10.2411H10.241H10.241H10.241H10.241H10.241H10.241H10.241H10.241H10.241H10.241H10.241H10.241H10.241H10.241H10.241H10.241H10.241H10.241H10.241H10.241H10.241H10.2409H10.2409H10.2409H10.2409H10.2409H10.2409H10.2409H10.2409H10.2409H10.2409H10.2409H10.2409H10.2409H10.2409H10.2409H10.2409H10.2409H10.2409H10.2409H10.2409H10.2409H10.2409H10.2408H10.2408H10.2408H10.2408H10.2408H10.2408H10.2408H10.2408H10.2408H10.2408H10.2408H10.2408H10.2408H10.2408H10.2408H10.2408H10.2408H10.2408H10.2408H10.2408H10.2408H10.2407H10.2407H10.2407H10.2407H10.2407H10.2407H10.2407H10.2407H10.2407H10.2407H10.2407H10.2407H10.2407H10.2407H10.2407H10.2407H10.2407H10.2407H10.2407H10.2407H10.2407H10.2407H10.2406H10.2406H10.2406H10.2406H10.2406H10.2406H10.2406H10.2406H10.2406H10.2406H10.2406H10.2406H10.2406H10.2406H10.2406H10.2406H10.2406H10.2406H10.2406H10.2406H10.2406H10.2406H10.2405H10.2405H10.2405H10.2405H10.2405H10.2405H10.2405H10.2405H10.2405H10.2405H10.2405H10.2405H10.2405H10.2405H10.2405H10.2405H10.2405H10.2405H10.2405H10.2405H10.2405H10.2405H10.2404H10.2404H10.2404H10.2404H10.2404H10.2404H10.2404H10.2404H10.2404H10.2404H10.2404H10.2404H10.2404H10.2404H10.2404H10.2404H10.2404H10.2404H10.2404H10.2404H10.2404H10.2404H10.2403H10.2403H10.2403H10.2403H10.2403H10.2403H10.2403H10.2403H10.2403H10.2403H10.2403H10.2403H10.2403H10.2403H10.2403H10.2403H10.2403H10.2403H10.2403H10.2403H10.2403H10.2403H10.2403H10.2402H10.2402H10.2402H10.2402H10.2402H10.2402H10.2402H10.2402H10.2402H10.2402H10.2402H10.2402H10.2402H10.2402H10.2402H10.2402H10.2402H10.2402H10.2402H10.2402H10.2402H10.2402H10.2402H10.2402H10.2401H10.2401H10.2401H10.2401H10.2401H10.2401H10.2401H10.2401H10.2401H10.2401H10.2401H10.2401H10.2401H10.2401H10.2401H10.2401H10.2401H10.2401H10.2401H10.2401H10.2401H10.2401H10.2401H10.2401H10.2401H10.24H10.24H10.24H10.24H10.24H10.24H10.24H10.24H10.24H10.24H10.24H10.24H10.24H10.24H10.24H10.24H10.24H10.24H10.24H10.24H10.24H10.24H10.24H10.24H10.2399H10.2399H10.2399H10.2399H10.2399H10.2399H10.2399H10.2399H10.2399H10.2399H10.2399H10.2399H10.2399H10.2399H10.2399H10.2399H10.2398H10.2398H10.2398H10.2398H10.2398H10.2398H10.2398H10.2398H10.2398H10.2398H10.2398H10.2398H10.2398H10.2398H10.2398H10.2397H10.2397H10.2397H10.2397H10.2397H10.2397H10.2397H10.2397H10.2397H10.2397H10.2397H10.2397H10.2397H10.2397H10.2397H10.2397H10.2397H10.2396H10.2396H10.2396H10.2396H10.2396H10.2396H10.2396H10.2396H10.2396H10.2396H10.2396H10.2396H10.2396H10.2396H10.2396H10.2396H10.2396H10.2396H10.2396H10.2395H10.2395H10.2395H10.2395H10.2395H10.2395H10.2395H10.2395H10.2395H10.2395H10.2395H10.2395H10.2395H10.2395H10.2395H10.2395H10.2395H10.2395H10.2395H10.2395H10.2394H10.2394H10.2394H10.2394H10.2394H10.2394H10.2394H10.2394H10.2394H10.2394H10.2394H10.2394H10.2394H10.2394H10.2394H10.2394H10.2394H10.2394H10.2394H10.2394H10.2394H10.2393H10.2393H10.2393H10.2393H10.2393H10.2393H10.2393H10.2393H10.2393H10.2393H10.2393H10.2393H10.2393H10.2393H10.2393H10.2393H10.2393H10.2393H10.2393H10.2393H10.2393H10.2393H10.2393H10.2392H10.2392H10.2392H10.2392H10.2392H10.2392H10.2392H10.2392H10.2392H10.2392H10.2392H10.2392H10.2392H10.2392H10.2392H10.2392H10.2392H10.2392H10.2392H10.2392H10.2392H10.2392H10.2392H10.2392H10.2391H10.2391H10.2391H10.2391H10.2391H10.2391H10.2391H10.2391H10.2391H10.2391H10.2391H10.2391H10.2391H10.2391H10.2391H10.2391H10.2391H10.2391H10.2391H10.2391H10.2391H10.2391H10.2391H10.2391H10.2391H10.2391H10.239H10.239H10.239H10.239H10.239H10.239H10.239H10.239H10.239H10.239H10.239H10.239H10.239H10.239H10.239H10.239H10.239H10.239H10.239H10.239H10.239H10.239H10.239H10.239H10.239H10.2389H10.2389H10.2389H10.2389H10.2389H10.2389H10.2389H10.2389H10.2389H10.2389H10.2389H10.2389H10.2389H10.2389H10.2389H10.2389H10.2389H10.2389H10.2389H10.2389H10.2389H10.2389H10.2389H10.2389H10.2388H10.2388H10.2388H10.2388H10.2388H10.2388H10.2388H10.2388H10.2388H10.2388H10.2388H10.2388H10.2388H10.2388H10.2388H10.2388H10.2388H10.2388H10.2388H10.2388H10.2388H10.2388H10.2388H10.2388H10.2388H10.2387H10.2387H10.2387H10.2387H10.2387H10.2387H10.2387H10.2387H10.2387H10.2387H10.2387H10.2387H10.2387H10.2387H10.2387H10.2387H10.2387H10.2387H10.2387H10.2387H10.2387H10.2387H10.2387H10.2387H10.2387H10.2387H10.2386H10.2386H10.2386H10.2386H10.2386H10.2386H10.2386H10.2386H10.2386H10.2386H10.2386H10.2386H10.2386H10.2386H10.2386H10.2386H10.2386H10.2386H10.2386H10.2386H10.2386H10.2386H10.2386H10.2386H10.2385H10.2385H10.2385H10.2385H10.2385H10.2385H10.2385H10.2385H10.2385H10.2385H10.2385H10.2385H10.2385H10.2385H10.2385H10.2385H10.2385H10.2385H10.2385H10.2385H10.2385H10.2385H10.2385H10.2384H10.2384H10.2384H10.2384H10.2384H10.2384H10.2384H10.2384H10.2384H10.2384H10.2384H10.2384H10.2384H10.2384H10.2384H10.2384H10.2384H10.2384H10.2384H10.2384H10.2384H10.2384H10.2383H10.2383H10.2383H10.2383H10.2383H10.2383H10.2383H10.2383H10.2383H10.2383H10.2383H10.2383H10.2383H10.2383H10.2383H10.2383H10.2383H10.2383H10.2383H10.2383H10.2382H10.2382H10.2382H10.2382H10.2382H10.2382H10.2382H10.2382H10.2382H10.2382H10.2382H10.2382H10.2382H10.2382H10.2382H10.2382H10.2382H10.2382H10.2382H10.2381H10.2381H10.2381H10.2381H10.2381H10.2381H10.2381H10.2381H10.2381H10.2381H10.2381H10.2381H10.2381H10.2381H10.2381H10.2381H10.2381H10.238H10.238H10.238H10.238H10.238H10.238H10.238H10.238H10.238H10.238H10.238H10.238H10.238H10.238H10.238H10.238H10.238H10.2379H10.2379H10.2379H10.2379H10.2379H10.2379H10.2379H10.2379H10.2379H10.2379H10.2379H10.2379H10.2379H10.2379H10.2379H10.2378H10.2378H10.2378H10.2378H10.2378H10.2378H10.2378H10.2378H10.2378H10.2378H10.2378H10.2378H10.2378H10.2378H10.2378H10.2377H10.2377H10.2377H10.2377H10.2377H10.2377H10.2377H10.2377H10.2377H10.2377H10.2377H10.2377H10.2377H10.2377H10.2376H10.2376H10.2376H10.2376H10.2376H10.2376H10.2376H10.2376H10.2376H10.2376H10.2376H10.2376H10.2376H10.2375H10.2375H10.2375H10.2375H10.2375H10.2375H10.2375H10.2375H10.2375H10.2375H10.2375H10.2375H10.2374H10.2374H10.2374H10.2374H10.2374H10.2374H10.2374H10.2374H10.2374H10.2374H10.2374H10.2374H10.2373H10.2373H10.2373H10.2373H10.2373H10.2373H10.2373H10.2373H10.2373H10.2373H10.2373H10.2372H10.2372H10.2372H10.2372H10.2372H10.2372H10.2372H10.2372H10.2372H10.2372H10.2372H10.2371V8.42207L10.2324 8.42212C9.40868 8.42994 8.63411 8.89919 8.08208 9.55414C7.52415 10.2161 7.14667 11.1185 7.14667 12.0953C7.14667 13.7627 7.86659 15.1942 9.03501 15.7129C9.08988 15.7384 9.17474 15.7703 9.2554 15.7991L9.08431 19.1051ZM11.2205 15.7967L11.3221 15.7597C11.3263 15.7582 11.3311 15.7564 11.3362 15.7546C11.3702 15.7422 11.4201 15.7241 11.4387 15.7159L11.4397 15.7155C12.428 15.2787 13.0979 14.1879 13.2817 12.852C13.2655 13.1307 13.2543 13.3982 13.25 13.6434C13.2448 13.9423 13.2497 14.2196 13.2711 14.4485C13.2818 14.5628 13.2975 14.6749 13.3213 14.7766C13.3431 14.8699 13.3805 14.9942 13.4548 15.1055L13.4551 15.106C13.7688 15.5747 14.235 15.9702 14.7942 16.1908L14.603 19.8911C14.0059 20.0605 13.3793 20.154 12.7304 20.154C12.2907 20.154 11.8606 20.1082 11.4404 20.0262L11.2205 15.7967Z" stroke="#FFFDFD" stroke-opacity="0.8"/>
<path d="M9.29287 14.3871C9.29873 14.3956 9.3045 14.404 9.31018 14.4123C9.33288 14.4455 9.35415 14.4765 9.37436 14.5044C9.37467 14.5048 9.37498 14.5052 9.37529 14.5057C9.38243 14.5155 9.38944 14.5249 9.39633 14.5338L9.31298 14.6605L9.2789 14.6426L9.27845 14.6424L9.1194 14.5591C9.14107 14.5177 9.16851 14.4815 9.20021 14.4509L9.29287 14.3871ZM9.29287 14.3871C9.29226 14.3862 9.29165 14.3853 9.29103 14.3844C9.2584 14.402 9.22793 14.4242 9.20062 14.4505L9.29287 14.3871ZM9.36225 14.6973L9.31391 14.6746L9.29398 14.6923L9.26335 14.7358M9.36225 14.6973L9.56234 14.791C9.5455 14.8232 9.50474 14.8425 9.46512 14.8318C9.46074 14.8308 9.44746 14.8272 9.42686 14.8197C9.42498 14.819 9.42303 14.8183 9.42103 14.8175L9.47839 14.7517M9.36225 14.6973L9.32257 14.7729M9.36225 14.6973L9.47839 14.7517M9.26335 14.7358L9.28922 14.6965L9.25309 14.7286L9.26335 14.7358ZM9.26335 14.7358C9.28374 14.7493 9.30329 14.7616 9.32257 14.7729M9.32257 14.7729C9.36289 14.794 9.39646 14.8083 9.42103 14.8175C9.43866 14.7973 9.45775 14.7754 9.47839 14.7517M9.32257 14.7729L9.36574 14.6989L9.47839 14.7517M9.48115 14.7485L9.37058 14.6906L9.43466 14.5808C9.4616 14.6144 9.4855 14.6405 9.50306 14.6585C9.5055 14.661 9.50782 14.6634 9.51 14.6656C9.52488 14.6805 9.5337 14.6882 9.5337 14.6882L9.48115 14.7485ZM9.48115 14.7485L9.48409 14.7451L9.48115 14.7485ZM8.64153 12.7506C8.65094 12.8532 8.67612 12.974 8.70693 13.0673C8.74518 13.172 8.78086 13.276 8.81578 13.3779C8.84131 13.4524 8.86643 13.5257 8.89187 13.5973C8.83033 13.4656 8.78043 13.3223 8.72244 13.1557C8.71297 13.1285 8.70328 13.1007 8.6933 13.0722C8.69325 13.0721 8.6932 13.072 8.69315 13.0718C8.69221 13.0691 8.69127 13.0665 8.69033 13.0638C8.66101 12.9623 8.64571 12.8758 8.63781 12.7711C8.63761 12.7644 8.63743 12.7577 8.63727 12.751L8.64153 12.7506ZM8.64153 12.7506C8.63973 12.7335 8.63805 12.7165 8.63652 12.6996C8.63661 12.7167 8.63687 12.7338 8.63727 12.751L8.64153 12.7506ZM9.31548 14.6618L9.40114 14.5401C9.41023 14.5517 9.41911 14.5625 9.42783 14.5723L9.42683 14.5742L9.31569 14.6619L9.31548 14.6618ZM9.3236 14.666L9.42668 14.5745L9.36678 14.6886L9.3236 14.666ZM9.30488 14.6704L9.24145 14.7204L9.22987 14.7123C9.22624 14.7097 9.22256 14.7072 9.21882 14.7046C9.18164 14.6788 9.13939 14.6494 9.09427 14.6156C9.09874 14.6034 9.10383 14.5912 9.10958 14.5789L9.27025 14.6542L9.27063 14.6544L9.30488 14.6704ZM8.14397 12.7999C8.15661 12.9344 8.1876 13.0856 8.22825 13.2121L8.14366 12.797C8.14376 12.798 8.14387 12.799 8.14397 12.7999Z" stroke="#FFFDFD" stroke-opacity="0.8"/>
<mask id="path-4-inside-1_284:1628" fill="white">
<path d="M12.7293 4.47168C7.8888 4.47168 3.94958 8.41007 3.94958 13.2508C3.94958 18.0905 7.8888 22.03 12.7293 22.03C17.5695 22.03 21.5079 18.0905 21.5079 13.2508C21.5079 8.41007 17.5695 4.47168 12.7293 4.47168ZM12.7293 21.3752C8.24913 21.3752 4.6041 17.7304 4.6041 13.2508C4.6041 8.77067 8.24913 5.12564 12.7293 5.12564C17.2089 5.12564 20.8542 8.77067 20.8542 13.2508C20.8542 17.7304 17.2089 21.3752 12.7293 21.3752Z"/>
</mask>
<path d="M21.5079 13.2508H22.5079V13.2508L21.5079 13.2508ZM20.8542 13.2508L21.8542 13.2508V13.2508H20.8542ZM12.7293 3.47168C7.33662 3.47168 2.94958 7.85768 2.94958 13.2508H4.94958C4.94958 8.96245 8.44098 5.47168 12.7293 5.47168V3.47168ZM2.94958 13.2508C2.94958 18.6428 7.33653 23.03 12.7293 23.03V21.03C8.44107 21.03 4.94958 17.5382 4.94958 13.2508H2.94958ZM12.7293 23.03C18.1219 23.03 22.5079 18.6427 22.5079 13.2508H20.5079C20.5079 17.5383 17.0171 21.03 12.7293 21.03V23.03ZM22.5079 13.2508C22.5079 7.85782 18.1218 3.47168 12.7293 3.47168V5.47168C17.0172 5.47168 20.5079 8.96232 20.5079 13.2508L22.5079 13.2508ZM12.7293 20.3752C8.80133 20.3752 5.6041 17.1781 5.6041 13.2508H3.6041C3.6041 18.2828 7.69693 22.3752 12.7293 22.3752V20.3752ZM5.6041 13.2508C5.6041 9.32295 8.80141 6.12564 12.7293 6.12564V4.12564C7.69684 4.12564 3.6041 8.21838 3.6041 13.2508H5.6041ZM12.7293 6.12564C16.6566 6.12564 19.8542 9.32296 19.8542 13.2508H21.8542C21.8542 8.21838 17.7612 4.12564 12.7293 4.12564V6.12564ZM19.8542 13.2508C19.8542 17.1781 16.6567 20.3752 12.7293 20.3752V22.3752C17.7611 22.3752 21.8542 18.2828 21.8542 13.2508L19.8542 13.2508Z" fill="#FFFDFD" fill-opacity="0.8" mask="url(#path-4-inside-1_284:1628)"/>
</svg>
