<svg width="116" height="33" viewBox="0 0 116 33" fill="none" xmlns="http://www.w3.org/2000/svg">
<g filter="url(#filter0_d_1683_44)">
<path d="M3.19109 17H8.47109C11.7311 17 14.2111 15.62 14.2111 12.64C14.2111 10.64 13.0311 9.52 11.4311 9.14V9.04C12.6911 8.6 13.4511 7.2 13.4511 5.84C13.4511 3.08 11.1311 2.18 8.09109 2.18H3.19109V17ZM6.15109 8.22V4.46H7.91109C9.69109 4.46 10.5711 4.98 10.5711 6.28C10.5711 7.46 9.75109 8.22 7.87109 8.22H6.15109ZM6.15109 14.72V10.4H8.21109C10.2511 10.4 11.3311 11.02 11.3311 12.46C11.3311 14 10.2311 14.72 8.21109 14.72H6.15109ZM21.4444 17.28C22.8244 17.28 24.2444 16.8 25.3444 16.04L24.3444 14.24C23.5444 14.74 22.7444 15.02 21.8244 15.02C20.1644 15.02 18.9644 14.06 18.7244 12.22H25.6244C25.7044 11.96 25.7644 11.42 25.7644 10.86C25.7644 7.78 24.1644 5.52 21.0844 5.52C18.4244 5.52 15.8644 7.78 15.8644 11.4C15.8644 15.1 18.3044 17.28 21.4444 17.28ZM18.6844 10.26C18.9044 8.64 19.9444 7.8 21.1244 7.8C22.5644 7.8 23.2444 8.76 23.2444 10.26H18.6844ZM32.0511 17.28C33.0311 17.28 33.8111 17.06 34.4111 16.86L33.9311 14.72C33.6311 14.84 33.1911 14.96 32.8311 14.96C31.8311 14.96 31.3111 14.36 31.3111 13.08V8.12H34.0711V5.8H31.3111V2.78H28.8711L28.5311 5.8L26.7911 5.94V8.12H28.3711V13.08C28.3711 15.58 29.3911 17.28 32.0511 17.28ZM39.9808 17.28C40.9608 17.28 41.7408 17.06 42.3408 16.86L41.8608 14.72C41.5608 14.84 41.1208 14.96 40.7608 14.96C39.7608 14.96 39.2408 14.36 39.2408 13.08V8.12H42.0008V5.8H39.2408V2.78H36.8008L36.4608 5.8L34.7208 5.94V8.12H36.3008V13.08C36.3008 15.58 37.3208 17.28 39.9808 17.28ZM48.7881 17.28C50.1681 17.28 51.5881 16.8 52.6881 16.04L51.6881 14.24C50.8881 14.74 50.0881 15.02 49.1681 15.02C47.5081 15.02 46.3081 14.06 46.0681 12.22H52.9681C53.0481 11.96 53.1081 11.42 53.1081 10.86C53.1081 7.78 51.5081 5.52 48.4281 5.52C45.7681 5.52 43.2081 7.78 43.2081 11.4C43.2081 15.1 45.6481 17.28 48.7881 17.28ZM46.0281 10.26C46.2481 8.64 47.2881 7.8 48.4681 7.8C49.9081 7.8 50.5881 8.76 50.5881 10.26H46.0281ZM55.5292 17H58.4692V10.32C59.0892 8.7 60.1492 8.12 61.0292 8.12C61.4892 8.12 61.8092 8.18 62.2092 8.3L62.7092 5.76C62.3692 5.62 62.0092 5.52 61.3892 5.52C60.2292 5.52 59.0292 6.32 58.2092 7.78H58.1492L57.9292 5.8H55.5292V17ZM68.9002 17.28C72.3202 17.28 74.3402 15.22 74.3402 12.8C74.3402 10.66 73.1602 9.52 71.3602 8.78L69.4202 7.96C68.1602 7.46 67.1202 7.08 67.1202 6.02C67.1202 5.04 67.9402 4.46 69.2402 4.46C70.4602 4.46 71.4402 4.9 72.3802 5.68L73.8802 3.82C72.6802 2.6 70.9602 1.92 69.2402 1.92C66.2402 1.92 64.1202 3.78 64.1202 6.2C64.1202 8.36 65.6202 9.56 67.1202 10.18L69.1002 11.02C70.4202 11.58 71.3202 11.92 71.3202 13.02C71.3202 14.06 70.5002 14.72 68.9602 14.72C67.6602 14.72 66.2602 14.06 65.2002 13.08L63.5002 15.12C64.9402 16.5 66.9202 17.28 68.9002 17.28ZM81.6006 17.28C82.9806 17.28 84.4006 16.8 85.5006 16.04L84.5006 14.24C83.7006 14.74 82.9006 15.02 81.9806 15.02C80.3206 15.02 79.1206 14.06 78.8806 12.22H85.7806C85.8606 11.96 85.9206 11.42 85.9206 10.86C85.9206 7.78 84.3206 5.52 81.2406 5.52C78.5806 5.52 76.0206 7.78 76.0206 11.4C76.0206 15.1 78.4606 17.28 81.6006 17.28ZM78.8406 10.26C79.0606 8.64 80.1006 7.8 81.2806 7.8C82.7206 7.8 83.4006 8.76 83.4006 10.26H78.8406ZM91.1017 17.28C91.8017 17.28 92.2817 17.16 92.6217 17.02L92.2617 14.84C92.0617 14.88 91.9817 14.88 91.8617 14.88C91.5817 14.88 91.2817 14.66 91.2817 13.98V1.04H88.3417V13.86C88.3417 15.94 89.0617 17.28 91.1017 17.28ZM95.1503 17H98.0903V8.12H100.19V5.8H98.0903V4.84C98.0903 3.6 98.5703 3.08 99.4503 3.08C99.8103 3.08 100.25 3.16 100.63 3.32L101.17 1.14C100.67 0.959999 99.9103 0.759999 99.0503 0.759999C96.2303 0.759999 95.1503 2.56 95.1503 4.9V5.82L93.6503 5.94V8.12H95.1503V17ZM102.365 17.28C103.425 17.28 104.205 16.44 104.205 15.36C104.205 14.26 103.425 13.44 102.365 13.44C101.325 13.44 100.545 14.26 100.545 15.36C100.545 16.44 101.325 17.28 102.365 17.28Z" fill="#D2ABBA"/>
</g>
<defs>
<filter id="filter0_d_1683_44" x="0.190918" y="0.759766" width="115.014" height="31.52" filterUnits="userSpaceOnUse" color-interpolation-filters="sRGB">
<feFlood flood-opacity="0" result="BackgroundImageFix"/>
<feColorMatrix in="SourceAlpha" type="matrix" values="0 0 0 0 0 0 0 0 0 0 0 0 0 0 0 0 0 0 127 0" result="hardAlpha"/>
<feOffset dx="4" dy="8"/>
<feGaussianBlur stdDeviation="3.5"/>
<feComposite in2="hardAlpha" operator="out"/>
<feColorMatrix type="matrix" values="0 0 0 0 0 0 0 0 0 0 0 0 0 0 0 0 0 0 0.25 0"/>
<feBlend mode="normal" in2="BackgroundImageFix" result="effect1_dropShadow_1683_44"/>
<feBlend mode="normal" in="SourceGraphic" in2="effect1_dropShadow_1683_44" result="shape"/>
</filter>
</defs>
</svg>
