<svg width="61" height="62" viewBox="0 0 61 62" fill="none" xmlns="http://www.w3.org/2000/svg">
<path d="M36.2194 5.83829L36.0161 5.73496L35.9907 5.78663C34.2115 5.39913 32.3815 5.16663 30.5007 5.16663C16.4707 5.16663 5.08398 16.74 5.08398 31C5.08398 45.26 16.4707 56.8333 30.5007 56.8333C44.5307 56.8333 55.9173 45.26 55.9173 31C55.9173 18.7291 47.5044 8.47329 36.2194 5.83829ZM49.3344 23.25H29.0265L35.9144 11.1083C42.0144 12.8133 46.9707 17.36 49.3344 23.25ZM33.2965 10.54L26.1036 23.25L23.1807 28.4166L16.2673 16.275C19.9273 12.6066 24.9598 10.3333 30.5007 10.3333C31.4411 10.3333 32.3815 10.4108 33.2965 10.54ZM14.4882 18.3158L21.7065 31L24.6294 36.1666H10.8282C10.4215 34.5133 10.1673 32.7825 10.1673 31C10.1673 26.2208 11.794 21.8291 14.4882 18.3158ZM11.6669 38.75H31.9494L25.0615 50.8916C18.9615 49.1608 14.0307 44.64 11.6669 38.75ZM27.7048 51.4341L37.8461 33.5833L44.7594 45.725C41.074 49.3933 36.0415 51.6666 30.5007 51.6666C29.5348 51.6666 28.6198 51.5633 27.7048 51.4341ZM46.5132 43.6841L36.3465 25.8333H50.1477C50.5798 27.4866 50.834 29.2175 50.834 31C50.834 35.7791 49.2073 40.1708 46.5132 43.6841Z" fill="#FFFDFD"/>
</svg>
