<svg width="36" height="36" viewBox="0 0 36 36" fill="none" xmlns="http://www.w3.org/2000/svg">
<path d="M13.5 18C13.5 20.49 15.51 22.5 18 22.5C20.49 22.5 22.5 20.49 22.5 18C22.5 15.51 20.49 13.5 18 13.5C15.51 13.5 13.5 15.51 13.5 18ZM19.5 18C19.5 18.825 18.825 19.5 18 19.5C17.175 19.5 16.5 18.825 16.5 18C16.5 17.175 17.175 16.5 18 16.5C18.825 16.5 19.5 17.175 19.5 18Z" fill="#FFFDFD"/>
<path d="M12 15.0001V12.0001H7.635C9.705 8.41512 13.575 6.00012 18 6.00012C23.58 6.00012 28.275 9.84012 29.61 15.0001H32.7C31.305 8.16012 25.26 3.00012 18 3.00012C13.095 3.00012 8.73 5.37012 6 9.01512V6.00012H3V15.0001H12Z" fill="#FFFDFD"/>
<path d="M24.0008 21.0001V24.0001H28.3658C26.2958 27.5851 22.4258 30.0001 18.0008 30.0001C12.4208 30.0001 7.72578 26.1601 6.39078 21.0001H3.30078C4.69578 27.8401 10.7408 33.0001 18.0008 33.0001C22.9058 33.0001 27.2708 30.6301 30.0008 26.9851V30.0001H33.0008V21.0001H24.0008Z" fill="#FFFDFD"/>
</svg>
