<svg width="26" height="27" viewBox="0 0 26 27" fill="none" xmlns="http://www.w3.org/2000/svg">
<mask id="path-1-inside-1_1269:35" fill="white">
<path d="M21.0779 10.0402C21.5247 9.7156 21.627 9.08671 21.2631 8.67126C20.3451 7.62316 19.2339 6.75691 17.987 6.1216C16.4424 5.33459 14.7335 4.92432 13 4.92432C11.2665 4.92432 9.55755 5.33459 8.01297 6.12159C6.7661 6.7569 5.6549 7.62316 4.73684 8.67125C4.37294 9.0867 4.47527 9.71559 4.92208 10.0402L8.47911 12.6246C8.92592 12.9492 9.54553 12.8396 9.95909 12.4735C10.2485 12.2173 10.5702 11.9978 10.917 11.8211C11.5622 11.4924 12.2759 11.3211 13 11.3211C13.724 11.3211 14.4378 11.4924 15.0829 11.8211C15.4297 11.9978 15.7514 12.2173 16.0409 12.4735C16.4544 12.8396 17.0741 12.9492 17.5209 12.6246L21.0779 10.0402Z"/>
</mask>
<path d="M21.0779 10.0402C21.5247 9.7156 21.627 9.08671 21.2631 8.67126C20.3451 7.62316 19.2339 6.75691 17.987 6.1216C16.4424 5.33459 14.7335 4.92432 13 4.92432C11.2665 4.92432 9.55755 5.33459 8.01297 6.12159C6.7661 6.7569 5.6549 7.62316 4.73684 8.67125C4.37294 9.0867 4.47527 9.71559 4.92208 10.0402L8.47911 12.6246C8.92592 12.9492 9.54553 12.8396 9.95909 12.4735C10.2485 12.2173 10.5702 11.9978 10.917 11.8211C11.5622 11.4924 12.2759 11.3211 13 11.3211C13.724 11.3211 14.4378 11.4924 15.0829 11.8211C15.4297 11.9978 15.7514 12.2173 16.0409 12.4735C16.4544 12.8396 17.0741 12.9492 17.5209 12.6246L21.0779 10.0402Z" stroke="#FFFDFD" stroke-width="3" mask="url(#path-1-inside-1_1269:35)"/>
<line x1="13.0688" y1="9.72754" x2="13.0688" y2="8.45481" stroke="#FFFDFD" stroke-linecap="round"/>
<rect x="1.5" y="1" width="23" height="22.2424" rx="4" stroke="#FFFDFD" stroke-width="2"/>
</svg>
