<svg width="32" height="32" viewBox="0 0 32 32" fill="none" xmlns="http://www.w3.org/2000/svg">
<path d="M3.94218 6.7H7.12167V11.35H23.0191V6.7H26.1986V14.45H29.3781V6.7C29.3781 4.995 27.9473 3.6 26.1986 3.6H19.5535C18.8858 1.802 17.1371 0.5 15.0704 0.5C13.0037 0.5 11.255 1.802 10.5873 3.6H3.94218C2.19346 3.6 0.762695 4.995 0.762695 6.7V28.4C0.762695 30.105 2.19346 31.5 3.94218 31.5H13.4806V28.4H3.94218V6.7ZM15.0704 3.6C15.9447 3.6 16.6601 4.2975 16.6601 5.15C16.6601 6.0025 15.9447 6.7 15.0704 6.7C14.196 6.7 13.4806 6.0025 13.4806 5.15C13.4806 4.2975 14.196 3.6 15.0704 3.6Z" fill="#EEEEEE"/>
<path d="M29.3779 16.7754L20.6502 25.3004L15.8651 20.6504L13.4805 22.9754L20.6502 29.9504L31.7625 19.1004L29.3779 16.7754Z" fill="#EEEEEE"/>
</svg>
