<svg xmlns="http://www.w3.org/2000/svg" viewBox="0 0 23.45 19.63"><defs><style>.cls-1{fill:#8e8e8e;}</style></defs><g id="레이어_2" data-name="레이어 2"><g id="레이어_1-2" data-name="레이어 1"><path class="cls-1" d="M17.59,3.12a3.56,3.56,0,0,1,2.05,1.1,3.73,3.73,0,0,1,.6,1.15,3.3,3.3,0,0,1,.08.42v.42c0,4.77,0,6.48,0,6.86s0,.77,0,1v.34a1.43,1.43,0,0,1,0,.23s0,.19-.08.34a2.93,2.93,0,0,1-.27.64,2.83,2.83,0,0,1-.57.72,2.45,2.45,0,0,1-.35.29l-.24.15a2.28,2.28,0,0,1-.45.2,4.34,4.34,0,0,1-.48.14,4.73,4.73,0,0,1-.84,0H5.52a1.86,1.86,0,0,0-.34.06l-.08,0a21.89,21.89,0,0,1-2.88,2.15,1.64,1.64,0,0,1-.67.18,1.37,1.37,0,0,1-.43,0,1.41,1.41,0,0,1-.51-.24A1.39,1.39,0,0,1,.25,19,1.47,1.47,0,0,1,0,18.36a1.32,1.32,0,0,1,0-.3c0-.3,0-3.6,0-11.85A2.6,2.6,0,0,1,.1,5.4,2.52,2.52,0,0,1,.25,5,3.3,3.3,0,0,1,1.58,3.48c.18-.09.39-.17.39-.17a3.41,3.41,0,0,1,.41-.13,3,3,0,0,1,.68-.06ZM10.17,4.7H3.07c-.14,0-.26,0-.39,0h0a1.18,1.18,0,0,0-.28.12A.57.57,0,0,0,2.16,5l-.24.24a1.24,1.24,0,0,0-.28.56,1.71,1.71,0,0,0,0,.46V17.73c0,.06,0,.21.06.16a.1.1,0,0,0,.05,0l.35-.26.52-.4c.2-.17.42-.31.62-.47l.67-.5a5.25,5.25,0,0,1,.49-.33,1.13,1.13,0,0,1,.27-.13A2.85,2.85,0,0,1,5,15.65a1.07,1.07,0,0,1,.25,0H17a1.9,1.9,0,0,0,.58,0,.94.94,0,0,0,.22-.07,1.4,1.4,0,0,0,.64-.49,1.65,1.65,0,0,0,.21-.42,1.57,1.57,0,0,0,0-.23.66.66,0,0,0,0-.24q0-4,0-7.94a2.63,2.63,0,0,0-.06-.39.76.76,0,0,0-.06-.2,1.8,1.8,0,0,0-.29-.43,1.49,1.49,0,0,0-.62-.39,1.7,1.7,0,0,1-.22,0,.83.83,0,0,0-.27,0ZM4.8,0H4.6a.61.61,0,0,0-.24.06A.87.87,0,0,0,4,.46a.73.73,0,0,0-.06.5.8.8,0,0,0,.75.61,1.33,1.33,0,0,1,.2,0H20.18a1.81,1.81,0,0,1,.46,0,2.28,2.28,0,0,1,.44.15,1.55,1.55,0,0,1,.51.44,1.43,1.43,0,0,1,.28.89q0,3.87,0,7.73a1.2,1.2,0,0,0,0,.38.94.94,0,0,0,.31.4.56.56,0,0,0,.26.12.89.89,0,0,0,.51,0,.94.94,0,0,0,.38-.36.66.66,0,0,0,.09-.39q0-4,0-7.94a2.5,2.5,0,0,0-.09-.72c0-.06-.05-.12-.06-.18a.86.86,0,0,0-.07-.21,2.65,2.65,0,0,0-.27-.5,2.43,2.43,0,0,0-.24-.32,3,3,0,0,0-.53-.48,2.78,2.78,0,0,0-.47-.28,2,2,0,0,0-.4-.16A1.31,1.31,0,0,0,20.94,0a2.24,2.24,0,0,0-.58,0H4.8ZM7.88,10.37c.19-1.13-1.6-1.29-1.57-.14A.79.79,0,0,0,7.88,10.37Zm1.54-.14a.8.8,0,0,0,1.59,0A.8.8,0,0,0,9.42,10.23Zm4.58.24a.79.79,0,1,0-1.54-.28A.79.79,0,0,0,14,10.47Zm-.71-.16Z"/></g></g></svg>