<svg width="26" height="26" viewBox="0 0 26 26" fill="none" xmlns="http://www.w3.org/2000/svg">
<circle cx="12.7298" cy="12.8973" r="12.2298" stroke="#FFFDFD" stroke-opacity="0.8"/>
<path d="M12.7293 5.49268C8.63987 5.49268 5.3252 8.80736 5.3252 12.8969C5.3252 15.8434 7.05086 18.3801 9.54251 19.5718L9.77425 15.0938C9.77425 15.0938 9.33834 14.9507 9.24292 14.9041C8.31834 14.4969 7.64667 13.2977 7.64667 11.7413C7.64667 10.043 8.96377 8.58018 10.2371 8.56809C10.2388 8.56809 10.2388 8.56809 10.2398 8.56809C10.2404 8.56809 10.2414 8.56809 10.2419 8.56809C11.5156 8.58013 12.8327 10.043 12.8327 11.7413C12.8327 13.2977 12.1602 14.4964 11.2375 14.9041C11.2303 14.9073 10.702 15.0992 10.702 15.0992L10.9608 20.0782C11.5287 20.218 12.1192 20.3 12.7304 20.3C13.5545 20.3 14.3438 20.1596 15.0843 19.9115L15.3136 15.4743C14.7093 15.3413 14.1938 14.9566 13.8706 14.4739C13.4704 13.8743 14.1788 8.56759 14.1788 8.56759H14.6396V13.5474H15.0972V8.56814H15.5977V13.5485H16.0532V8.56814H16.5724V13.5485H17.0294V8.56814H17.3831C17.3831 8.56814 18.0915 13.8748 17.6907 14.4744C17.3708 14.9524 16.8601 15.336 16.2632 15.4721C16.2525 15.4759 16.2428 15.4796 16.2428 15.4796L16.4422 19.2964C18.6477 18.0141 20.1341 15.6318 20.1341 12.8969C20.133 8.8074 16.8183 5.49268 12.7293 5.49268Z" fill="#FFFDFD" fill-opacity="0.8"/>
<path d="M9.29287 14.0331C9.29873 14.0416 9.3045 14.05 9.31018 14.0583C9.33288 14.0915 9.35415 14.1225 9.37436 14.1504C9.37467 14.1508 9.37498 14.1512 9.37529 14.1516C9.38243 14.1615 9.38944 14.1709 9.39633 14.1798L9.31298 14.3064L9.2789 14.2886L9.27845 14.2884L9.1194 14.2051C9.14107 14.1637 9.16852 14.1275 9.20021 14.0969L9.29287 14.0331ZM9.29287 14.0331C9.29226 14.0322 9.29165 14.0313 9.29103 14.0304C9.2584 14.048 9.22793 14.0702 9.20062 14.0965L9.29287 14.0331ZM9.36225 14.3433L9.31391 14.3206L9.29398 14.3383L9.26335 14.3818M9.36225 14.3433L9.56234 14.437C9.5455 14.4692 9.50474 14.4885 9.46512 14.4778C9.46074 14.4768 9.44746 14.4732 9.42686 14.4657C9.42498 14.465 9.42303 14.4643 9.42103 14.4635L9.47839 14.3977M9.36225 14.3433L9.32257 14.4189M9.36225 14.3433L9.47839 14.3977M9.26335 14.3818L9.28922 14.3425L9.25309 14.3746L9.26335 14.3818ZM9.26335 14.3818C9.28374 14.3952 9.30329 14.4076 9.32257 14.4189M9.32257 14.4189C9.36289 14.44 9.39646 14.4543 9.42103 14.4635C9.43866 14.4433 9.45775 14.4214 9.47839 14.3977M9.32257 14.4189L9.36574 14.3449L9.47839 14.3977M9.48115 14.3945L9.37058 14.3366L9.43466 14.2268C9.4616 14.2604 9.4855 14.2865 9.50306 14.3045C9.5055 14.307 9.50782 14.3094 9.51 14.3116C9.52488 14.3265 9.5337 14.3342 9.5337 14.3342L9.48115 14.3945ZM9.48115 14.3945L9.48409 14.3911L9.48115 14.3945ZM8.64153 12.3966C8.65094 12.4992 8.67612 12.62 8.70693 12.7133C8.74518 12.818 8.78086 12.922 8.81578 13.0239C8.84131 13.0984 8.86643 13.1717 8.89187 13.2433C8.83033 13.1116 8.78043 12.9683 8.72244 12.8017C8.71297 12.7745 8.70328 12.7467 8.6933 12.7182C8.69325 12.7181 8.6932 12.718 8.69315 12.7178C8.69221 12.7151 8.69127 12.7125 8.69033 12.7098C8.66101 12.6083 8.64571 12.5218 8.63781 12.4171C8.63761 12.4104 8.63743 12.4037 8.63727 12.397L8.64153 12.3966ZM8.64153 12.3966C8.63973 12.3795 8.63805 12.3625 8.63652 12.3456C8.63661 12.3627 8.63687 12.3798 8.63727 12.397L8.64153 12.3966ZM9.31548 14.3078L9.40114 14.1861C9.41023 14.1977 9.41911 14.2085 9.42783 14.2183L9.42683 14.2202L9.31569 14.3079L9.31548 14.3078ZM9.32361 14.312L9.42668 14.2205L9.36678 14.3346L9.32361 14.312ZM9.30488 14.3164L9.24145 14.3664L9.22987 14.3583C9.22624 14.3557 9.22256 14.3532 9.21882 14.3506C9.18164 14.3248 9.13939 14.2954 9.09427 14.2616C9.09874 14.2494 9.10383 14.2372 9.10958 14.2249L9.27025 14.3002L9.27063 14.3003L9.30488 14.3164ZM8.14397 12.4459C8.15661 12.5804 8.1876 12.7316 8.22825 12.8581L8.14366 12.443C8.14376 12.444 8.14387 12.445 8.14397 12.4459Z" stroke="#FFFDFD" stroke-opacity="0.8"/>
<path d="M12.7293 4.11816C7.8888 4.11816 3.94958 8.05655 3.94958 12.8973C3.94958 17.737 7.8888 21.6765 12.7293 21.6765C17.5695 21.6765 21.5079 17.737 21.5079 12.8973C21.5079 8.05655 17.5695 4.11816 12.7293 4.11816ZM12.7293 21.0217C8.24913 21.0217 4.6041 17.3769 4.6041 12.8973C4.6041 8.41715 8.24913 4.77213 12.7293 4.77213C17.2089 4.77213 20.8542 8.41715 20.8542 12.8973C20.8542 17.3769 17.2089 21.0217 12.7293 21.0217Z" fill="#FFFDFD" fill-opacity="0.8"/>
</svg>
