<svg width="26" height="26" viewBox="0 0 26 26" fill="none" xmlns="http://www.w3.org/2000/svg">
<circle cx="12.7298" cy="12.7298" r="12.2298" stroke="#FFFDFD" stroke-opacity="0.8"/>
<path d="M12.7298 8.93885C11.9801 8.93885 11.2471 9.16119 10.6237 9.57775C10.0003 9.99431 9.51435 10.5864 9.22742 11.2791C8.94049 11.9718 8.86541 12.7341 9.01169 13.4694C9.15797 14.2048 9.51902 14.8803 10.0492 15.4105C10.5794 15.9407 11.2549 16.3017 11.9903 16.448C12.7256 16.5943 13.4879 16.5192 14.1806 16.2323C14.8733 15.9453 15.4654 15.4594 15.8819 14.836C16.2985 14.2126 16.5208 13.4796 16.5208 12.7298C16.5208 11.7244 16.1214 10.7602 15.4105 10.0492C14.6995 9.33825 13.7353 8.93885 12.7298 8.93885ZM5.14785 13.488H6.66425C6.86533 13.488 7.05819 13.4082 7.20038 13.266C7.34257 13.1238 7.42245 12.9309 7.42245 12.7298C7.42245 12.5288 7.34257 12.3359 7.20038 12.1937C7.05819 12.0515 6.86533 11.9716 6.66425 11.9716H5.14785C4.94676 11.9716 4.75391 12.0515 4.61172 12.1937C4.46953 12.3359 4.38965 12.5288 4.38965 12.7298C4.38965 12.9309 4.46953 13.1238 4.61172 13.266C4.75391 13.4082 4.94676 13.488 5.14785 13.488ZM18.7954 13.488H20.3118C20.5129 13.488 20.7058 13.4082 20.848 13.266C20.9902 13.1238 21.07 12.9309 21.07 12.7298C21.07 12.5288 20.9902 12.3359 20.848 12.1937C20.7058 12.0515 20.5129 11.9716 20.3118 11.9716H18.7954C18.5944 11.9716 18.4015 12.0515 18.2593 12.1937C18.1171 12.3359 18.0372 12.5288 18.0372 12.7298C18.0372 12.9309 18.1171 13.1238 18.2593 13.266C18.4015 13.4082 18.5944 13.488 18.7954 13.488ZM11.9716 5.14785V6.66425C11.9716 6.86533 12.0515 7.05819 12.1937 7.20038C12.3359 7.34257 12.5288 7.42245 12.7298 7.42245C12.9309 7.42245 13.1238 7.34257 13.266 7.20038C13.4082 7.05819 13.488 6.86533 13.488 6.66425V5.14785C13.488 4.94676 13.4082 4.75391 13.266 4.61172C13.1238 4.46953 12.9309 4.38965 12.7298 4.38965C12.5288 4.38965 12.3359 4.46953 12.1937 4.61172C12.0515 4.75391 11.9716 4.94676 11.9716 5.14785ZM11.9716 18.7954V20.3118C11.9716 20.5129 12.0515 20.7058 12.1937 20.848C12.3359 20.9902 12.5288 21.07 12.7298 21.07C12.9309 21.07 13.1238 20.9902 13.266 20.848C13.4082 20.7058 13.488 20.5129 13.488 20.3118V18.7954C13.488 18.5944 13.4082 18.4015 13.266 18.2593C13.1238 18.1171 12.9309 18.0372 12.7298 18.0372C12.5288 18.0372 12.3359 18.1171 12.1937 18.2593C12.0515 18.4015 11.9716 18.5944 11.9716 18.7954ZM8.18065 7.104C8.10995 7.03331 8.02603 6.97723 7.93366 6.93897C7.8413 6.90072 7.7423 6.88102 7.64233 6.88102C7.54235 6.88102 7.44335 6.90072 7.35099 6.93897C7.25862 6.97723 7.1747 7.03331 7.104 7.104C6.96123 7.24678 6.88102 7.44042 6.88102 7.64233C6.88102 7.84424 6.96123 8.03788 7.104 8.18065L7.9077 8.97676C8.05274 9.10097 8.23932 9.16588 8.43014 9.15851C8.62096 9.15114 8.80197 9.07203 8.937 8.937C9.07203 8.80197 9.15114 8.62096 9.15851 8.43014C9.16588 8.23932 9.10097 8.05274 8.97676 7.9077L8.18065 7.104ZM17.552 16.5208C17.408 16.4407 17.2417 16.4097 17.0785 16.4325C16.9152 16.4554 16.7639 16.5308 16.6473 16.6473C16.5308 16.7639 16.4554 16.9152 16.4325 17.0785C16.4097 17.2417 16.4407 17.408 16.5208 17.552L17.279 18.3557C17.3497 18.4264 17.4337 18.4825 17.526 18.5207C17.6184 18.559 17.7174 18.5787 17.8174 18.5787C17.9173 18.5787 18.0163 18.559 18.1087 18.5207C18.2011 18.4825 18.285 18.4264 18.3557 18.3557C18.4264 18.285 18.4825 18.2011 18.5207 18.1087C18.559 18.0163 18.5787 17.9173 18.5787 17.8174C18.5787 17.7174 18.559 17.6184 18.5207 17.526C18.4825 17.4337 18.4264 17.3497 18.3557 17.279L17.552 16.5208ZM18.3557 8.18065C18.4264 8.10995 18.4825 8.02603 18.5207 7.93366C18.559 7.8413 18.5787 7.7423 18.5787 7.64233C18.5787 7.54235 18.559 7.44335 18.5207 7.35099C18.4825 7.25862 18.4264 7.1747 18.3557 7.104C18.285 7.03331 18.2011 6.97723 18.1087 6.93897C18.0163 6.90072 17.9173 6.88102 17.8174 6.88102C17.7174 6.88102 17.6184 6.90072 17.526 6.93897C17.4337 6.97723 17.3497 7.03331 17.279 7.104L16.5208 7.9077C16.3966 8.05274 16.3317 8.23932 16.3391 8.43014C16.3465 8.62096 16.4256 8.80197 16.5606 8.937C16.6956 9.07203 16.8766 9.15114 17.0675 9.15851C17.2583 9.16588 17.4449 9.10097 17.5899 8.97676L18.3557 8.18065ZM8.97676 17.552C9.07016 17.4045 9.1098 17.2293 9.089 17.056C9.06819 16.8827 8.98821 16.7218 8.86257 16.6006C8.73692 16.4794 8.5733 16.4053 8.39933 16.3908C8.22537 16.3762 8.05171 16.4222 7.9077 16.5208L7.104 17.279C7.03331 17.3497 6.97723 17.4337 6.93897 17.526C6.90072 17.6184 6.88102 17.7174 6.88102 17.8174C6.88102 17.9173 6.90072 18.0163 6.93897 18.1087C6.97723 18.2011 7.03331 18.285 7.104 18.3557C7.1747 18.4264 7.25862 18.4825 7.35099 18.5207C7.44335 18.559 7.54235 18.5787 7.64233 18.5787C7.7423 18.5787 7.8413 18.559 7.93366 18.5207C8.02603 18.4825 8.10995 18.4264 8.18065 18.3557L8.97676 17.552Z" fill="#FFFDFD" fill-opacity="0.8"/>
</svg>
