<svg width="26" height="26" viewBox="0 0 26 26" fill="none" xmlns="http://www.w3.org/2000/svg">
<circle cx="12.7298" cy="12.9109" r="12.2298" stroke="#FFFDFD" stroke-opacity="0.8"/>
<path d="M15.6847 8.78254C16.0444 8.78254 16.396 8.67689 16.6951 8.47894C16.9941 8.281 17.2272 7.99966 17.3648 7.67049C17.5025 7.34132 17.5385 6.97912 17.4683 6.62967C17.3982 6.28023 17.225 5.95925 16.9706 5.70731C16.7163 5.45538 16.3923 5.28381 16.0395 5.2143C15.6868 5.14479 15.3211 5.18047 14.9888 5.31681C14.6565 5.45316 14.3725 5.68405 14.1727 5.9803C13.9729 6.27654 13.8662 6.62483 13.8662 6.98111C13.8662 7.45888 14.0578 7.91708 14.3988 8.25491C14.7399 8.59275 15.2024 8.78254 15.6847 8.78254Z" fill="#FFFDFD" fill-opacity="0.8"/>
<path d="M18.6757 8.2654C17.6316 9.71225 16.2324 9.88032 14.729 8.99527C14.6267 8.9354 14.1712 8.6872 14.0717 8.62688C11.6516 7.20628 9.23437 7.763 7.61341 10.012C6.92449 10.9685 8.5157 11.8752 9.19904 10.9298C10.0358 9.76797 11.1012 9.43135 12.2671 9.79974C11.6707 10.8252 11.1491 11.8443 10.4137 13.2925C9.67831 14.7408 8.05084 15.897 6.49031 14.9927C5.36396 14.3401 4.34778 15.9436 5.47088 16.5938C7.60272 17.8279 10.1018 17.0699 11.3778 15.466C11.4235 15.4905 11.4711 15.5113 11.5201 15.5282C12.5623 15.8878 13.929 16.8457 14.345 17.186C14.7611 17.5263 15.4765 19.2545 15.9009 20.1234C16.4164 21.1775 18.0797 20.4098 17.5628 19.3512C17.0817 18.3653 16.2737 16.3981 15.6434 15.9003C15.1376 15.501 14.1558 14.7583 13.3237 14.3369C13.8871 13.2562 14.4733 12.1874 15.0902 11.1365C17.0579 11.7352 18.9281 11.0306 20.2604 9.18223C20.9502 8.22487 19.3571 7.31817 18.6757 8.2654Z" fill="#FFFDFD" fill-opacity="0.8"/>
</svg>
