<?xml version="1.0" standalone="no"?>
<!DOCTYPE svg PUBLIC "-//W3C//DTD SVG 20010904//EN"
 "http://www.w3.org/TR/2001/REC-SVG-20010904/DTD/svg10.dtd">
<svg version="1.0" xmlns="http://www.w3.org/2000/svg"
 width="512.000000pt" height="512.000000pt" viewBox="0 0 512.000000 512.000000"
 preserveAspectRatio="xMidYMid meet">

<g transform="translate(0.000000,512.000000) scale(0.100000,-0.100000)"
fill="#000000" stroke="none">
<path d="M0 2560 l0 -2560 2560 0 2560 0 0 2560 0 2560 -2560 0 -2560 0 0
-2560z m4495 1987 c218 -65 377 -225 442 -444 16 -52 18 -139 21 -903 2 -465
0 -864 -3 -888 -8 -57 -62 -118 -116 -132 -78 -21 -167 30 -189 109 -6 23 -10
355 -10 877 0 965 6 900 -89 995 -98 98 74 89 -1795 89 -1078 0 -1654 4 -1678
10 -77 22 -129 111 -109 188 13 46 68 101 113 112 18 5 780 7 1693 6 1562 -1
1664 -2 1720 -19z m-640 -640 c218 -65 377 -225 442 -444 16 -52 18 -139 21
-918 3 -912 1 -975 -43 -1091 -66 -176 -212 -313 -400 -376 l-70 -23 -1295 -5
c-788 -3 -1301 -9 -1310 -14 -8 -6 -142 -106 -298 -224 -155 -117 -303 -222
-328 -233 -62 -28 -166 -28 -227 -1 -64 28 -131 94 -158 155 l-24 52 -3 1255
c-3 1327 -2 1367 43 1486 78 207 276 365 492 393 38 5 741 8 1583 7 1422 -1
1519 -2 1575 -19z"/>
<path d="M670 3593 c-28 -10 -66 -37 -101 -72 -97 -97 -89 21 -87 -1395 l3
-1238 272 206 c284 214 296 222 378 252 48 18 113 19 1355 24 l1305 5 41 22
c56 30 129 113 148 170 14 41 16 148 16 923 0 1005 6 935 -89 1031 -98 97 58
89 -1675 88 -1362 0 -1526 -2 -1566 -16z m1028 -990 c107 -80 73 -255 -54
-279 -84 -16 -162 33 -184 115 -18 69 19 148 84 177 41 19 120 12 154 -13z
m640 0 c107 -80 73 -255 -54 -279 -84 -16 -162 33 -184 115 -18 69 19 148 84
177 41 19 120 12 154 -13z m596 13 c66 -28 104 -109 85 -181 -31 -112 -174
-152 -255 -71 -123 123 9 319 170 252z"/>
</g>
</svg>
