<svg width="45" height="45" viewBox="0 0 45 45" fill="none" xmlns="http://www.w3.org/2000/svg">
<path d="M14 11.5H32C33.3807 11.5 34.5 12.6193 34.5 14V25.2756C34.5 26.6551 33.3761 27.7756 31.9941 27.7756C30.0265 27.7756 28.4458 29.3957 28.4708 31.3575C28.477 31.8442 28.481 32.3203 28.4809 32.73C28.1457 32.3924 27.7318 31.9907 27.2873 31.5669C26.2345 30.5631 24.996 29.4216 24.1908 28.6846C23.5484 28.0966 22.7112 27.7756 21.8432 27.7756H14C12.6193 27.7756 11.5 26.6563 11.5 25.2756V14C11.5 12.6193 12.6193 11.5 14 11.5Z" stroke="#D2ABBA" stroke-opacity="0.8"/>
<path d="M14 12H32C33.1046 12 34 12.8954 34 14V25.2756C34 26.3777 33.1013 27.2756 31.9941 27.2756C29.745 27.2756 27.9423 29.1263 27.9708 31.3639C27.9715 31.4199 27.9722 31.4757 27.9729 31.5312C27.8618 31.4243 27.748 31.3153 27.6323 31.205C26.5758 30.1976 25.3343 29.0534 24.5284 28.3158C23.7927 27.6424 22.8347 27.2756 21.8432 27.2756H14C12.8954 27.2756 12 26.3802 12 25.2756V14C12 12.8954 12.8954 12 14 12Z" stroke="#D2ABBA" stroke-opacity="0.8" stroke-width="2"/>
</svg>
