<svg width="32" height="32" viewBox="0 0 32 32" fill="none" xmlns="http://www.w3.org/2000/svg">
<path d="M8.54067 28.6818H14.0518C14.0518 30.2318 12.8118 31.5 11.2962 31.5C9.78067 31.5 8.54067 30.2318 8.54067 28.6818ZM5.78511 27.2727H16.8073V24.4545H5.78511V27.2727ZM21.6296 13.8864C21.6296 19.2691 17.9647 22.1436 16.4353 23.0455H6.15711C4.62778 22.1436 0.962891 19.2691 0.962891 13.8864C0.962891 8.05273 5.59222 3.31818 11.2962 3.31818C17.0002 3.31818 21.6296 8.05273 21.6296 13.8864ZM18.874 13.8864C18.874 9.61682 15.4709 6.13636 11.2962 6.13636C7.12156 6.13636 3.71845 9.61682 3.71845 13.8864C3.71845 17.3668 5.77134 19.3677 6.95622 20.2273H15.6362C16.8211 19.3677 18.874 17.3668 18.874 13.8864ZM28.3393 10.885L26.4518 11.7727L28.3393 12.6605L29.2073 14.5909L30.0753 12.6605L31.9629 11.7727L30.0753 10.885L29.2073 8.95455L28.3393 10.885ZM25.074 8.95455L26.3691 6.05182L29.2073 4.72727L26.3691 3.40273L25.074 0.5L23.7789 3.40273L20.9407 4.72727L23.7789 6.05182L25.074 8.95455Z" fill="#EEEEEE"/>
</svg>
