<svg width="32" height="32" viewBox="0 0 32 32" fill="none" xmlns="http://www.w3.org/2000/svg">
<path d="M15.6621 4.18125C17.9096 4.18125 19.7309 6.0025 19.7309 8.25C19.7309 10.4975 17.9096 12.3188 15.6621 12.3188C13.4146 12.3188 11.5934 10.4975 11.5934 8.25C11.5934 6.0025 13.4146 4.18125 15.6621 4.18125ZM15.6621 21.6187C21.4165 21.6187 27.4809 24.4475 27.4809 25.6875V27.8188H3.84336V25.6875C3.84336 24.4475 9.90773 21.6187 15.6621 21.6187ZM15.6621 0.5C11.3802 0.5 7.91211 3.96812 7.91211 8.25C7.91211 12.5319 11.3802 16 15.6621 16C19.944 16 23.4121 12.5319 23.4121 8.25C23.4121 3.96812 19.944 0.5 15.6621 0.5ZM15.6621 17.9375C10.489 17.9375 0.162109 20.5338 0.162109 25.6875V31.5H31.1621V25.6875C31.1621 20.5338 20.8352 17.9375 15.6621 17.9375Z" fill="#EEEEEE"/>
</svg>
